# xmcd
#
# Track frame offsets: 
#        150
#        16257
#        48109
#        79430
#        109911
#        153666
#        188386
#        204158
#        209765
#        225814
#        234771
#        250182
#        260679
#        270189
#
# Disc length: 4561 seconds
#
# Revision: 4
# Processed by: cddbd v1.5.2PL0 Copyright (c) Steve Scherf et al.
# Submitted via: ExactAudioCopyFreeDBPlugin 1.0
#
DISCID=a811cf0e
DTITLE=Tchaikovsky - Best Tchaikovsky - Vol.1-6 ~ Concertos
DYEAR=2010
DGENRE=Classique
TTITLE0=Piano Concerto N°1 in B flat minor Op.23 - I. Allegro non trop
TTITLE0=po e molto maestoso
TTITLE1=Piano Concerto N°1 in B flat minor Op.23 - II. Andantino sempl
TTITLE1=ice - Prestissimo - Tempo primo
TTITLE2=Piano Concerto N°1 in B flat minor Op.23 - III. Allegro con fu
TTITLE2=oco
TTITLE3=Violin Concerto in D Op.35 - I. Allegro moderato opening
TTITLE4=Violin Concerto in D Op.35 - III. Finale - Allegro vivacissimo
TTITLE5=Piano Concerto N°2 in G major Op.44 (original version) - III. 
TTITLE5=Allegro con fuoco
TTITLE6=Variations on a Rococo Theme Op.33 - Introduction - Theme and Var
TTITLE6=iation I  (Moderato semplice)
TTITLE7=Variations on a Rococo Theme Op.33 - Variation II  (Tempo del 
TTITLE7=thema)
TTITLE8=Variations on a Rococo Theme Op.33 - Variation III  (Andante s
TTITLE8=ostenuto)
TTITLE9=Variations on a Rococo Theme Op.33 - Variation IV  (Andante gr
TTITLE9=azioso - Un poco animato)
TTITLE10=Variations on a Rococo Theme Op.33 - Variation V  (Allegro mo
TTITLE10=derato - Cadenza)
TTITLE11=Variations on a Rococo Theme Op.33 - Variation VI  (Andante)
TTITLE12=Variations on a Rococo Theme Op.33 - Variation VII and Coda  (A
TTITLE12=llegro vivo)
TTITLE13=Piano Concerto N°3 in E flat major Op.75 - Allegro brillante 
TTITLE13=Cadenza - Tempo I - Vivacissimo
EXTD=CD1: Concertos YEAR: 2010
EXTT0=
EXTT1=Andante semplice - Pretissimo - Tempo 1
EXTT2=Allegro con fuoco
EXTT3=
EXTT4=
EXTT5=
EXTT6=
EXTT7=
EXTT8=
EXTT9=
EXTT10=
EXTT11=
EXTT12=
EXTT13=
PLAYORDER=
